<?xml version="1.0" encoding="UTF-8"?>
<svg xmlns="http://www.w3.org/2000/svg" xmlns:xlink="http://www.w3.org/1999/xlink" viewBox="0 0 384 384" width="384px" height="384px">
<g id="surface26500250">
<path style=" stroke:none;fill-rule:nonzero;fill:rgb(100%,100%,100%);fill-opacity:1;" d="M 336 48 L 48 48 L 48 336 L 336 336 Z M 144 272 L 103.632812 272 L 103.632812 160 L 144 160 Z M 123.105469 139.472656 C 110.769531 139.472656 102.527344 131.246094 102.527344 120.273438 C 102.527344 109.296875 110.753906 101.070312 124.464844 101.070312 C 136.800781 101.070312 145.039062 109.296875 145.039062 120.273438 C 145.039062 131.246094 136.816406 139.472656 123.105469 139.472656 Z M 288 272 L 248.929688 272 L 248.929688 210.785156 C 248.929688 193.855469 238.511719 189.953125 234.609375 189.953125 C 230.703125 189.953125 217.679688 192.558594 217.679688 210.785156 C 217.679688 213.390625 217.679688 272 217.679688 272 L 177.3125 272 L 177.3125 160 L 217.679688 160 L 217.679688 175.632812 C 222.878906 166.511719 233.296875 160 252.832031 160 C 272.367188 160 288 175.632812 288 210.785156 Z M 288 272 "/>
</g>
</svg>
