<?xml version="1.0" encoding="UTF-8"?>
<svg xmlns="http://www.w3.org/2000/svg" xmlns:xlink="http://www.w3.org/1999/xlink" viewBox="0 0 144 144" width="144px" height="144px">
<g id="surface26502338">
<path style=" stroke:none;fill-rule:nonzero;fill:rgb(100%,100%,100%);fill-opacity:1;" d="M 16.308594 32.871094 C 9.582031 32.871094 4.460938 39.484375 6.316406 45.984375 C 11.144531 62.929688 18.300781 79.523438 28.988281 92.574219 C 39.671875 105.621094 54.121094 115.078125 72.597656 116.953125 C 78.75 117.578125 84.050781 112.5625 84.050781 106.484375 L 84.050781 94.34375 C 84.050781 93.585938 84.570312 93.046875 85.160156 93.03125 C 85.269531 93.027344 85.355469 93.023438 85.414062 93.023438 C 87.535156 93.023438 91.894531 95.683594 95.726562 99.816406 C 99.554688 103.945312 102.941406 109.0625 104.570312 111.898438 L 104.570312 111.902344 C 106.417969 115.101562 109.851562 117.035156 113.507812 117.035156 L 128.128906 117.035156 C 135.40625 117.039062 140.28125 108.816406 136.71875 102.445312 C 131.121094 92.441406 119.960938 82.542969 114.378906 77.609375 C 124.605469 66.378906 131.386719 54.140625 134.390625 46.027344 C 136.65625 39.894531 131.984375 32.996094 125.390625 32.996094 L 114.953125 32.996094 C 110.417969 32.996094 106.191406 35.203125 104.460938 38.742188 C 96.339844 55.386719 89.101562 61.496094 84 65.902344 L 84 43.320312 C 84 37.683594 79.324219 33.039062 73.710938 33.03125 L 55.433594 33 C 49.617188 32.992188 46.007812 40.179688 49.492188 44.84375 L 53.019531 49.566406 L 53.027344 49.578125 C 53.632812 50.375 53.953125 51.332031 53.953125 52.320312 L 53.953125 52.324219 L 54.023438 71.15625 C 46.753906 63.492188 38.859375 47.25 36.472656 40.007812 L 36.472656 40.003906 C 35.082031 35.769531 31.078125 32.914062 26.660156 32.902344 L 26.652344 32.902344 L 16.3125 32.871094 Z M 16.308594 41.871094 L 26.636719 41.898438 C 27.273438 41.902344 27.738281 42.246094 27.925781 42.8125 C 30.882812 51.8125 38.660156 68.957031 48.515625 78.554688 C 51.074219 81.050781 54.832031 81.554688 57.742188 80.375 C 60.65625 79.191406 63.027344 76.125 63.027344 72.527344 L 63.027344 72.519531 L 62.953125 52.316406 C 62.953125 49.375 61.988281 46.515625 60.222656 44.167969 L 60.21875 44.15625 L 58.605469 42.003906 L 73.695312 42.027344 C 74.480469 42.03125 75 42.542969 75 43.316406 L 75 66.128906 C 75 73.433594 84.199219 77.628906 89.730469 72.855469 L 89.738281 72.855469 C 94.804688 68.476562 103.777344 60.660156 112.546875 42.691406 C 112.75 42.273438 112.574219 41.992188 114.957031 41.992188 L 125.390625 41.992188 C 126 41.992188 126.175781 42.285156 125.949219 42.902344 C 123.394531 49.796875 116.882812 61.820312 107.226562 72.222656 C 104.25 75.429688 104.371094 80.726562 107.738281 83.707031 C 113.011719 88.371094 124.523438 99.078125 128.859375 106.832031 C 129.257812 107.542969 128.957031 108.035156 128.132812 108.035156 L 113.507812 108.035156 C 113.003906 108.035156 112.589844 107.789062 112.371094 107.40625 C 110.421875 104.019531 106.847656 98.574219 102.328125 93.695312 C 97.808594 88.820312 92.429688 84.023438 85.414062 84.023438 C 85.214844 84.023438 85.050781 84.027344 84.925781 84.027344 L 84.90625 84.027344 C 79.324219 84.1875 75.050781 88.925781 75.050781 94.339844 L 75.050781 106.480469 C 75.050781 107.414062 74.332031 108.082031 73.503906 108 C 57.535156 106.378906 45.496094 98.535156 35.945312 86.871094 C 26.398438 75.207031 19.578125 59.683594 14.96875 43.515625 C 14.714844 42.613281 15.265625 41.871094 16.304688 41.871094 Z M 16.308594 41.871094 "/>
</g>
</svg>
