<svg enable-background="new 0 0 379.5 293.7" viewBox="0 0 379.5 293.7" xmlns="http://www.w3.org/2000/svg" xmlns:xlink="http://www.w3.org/1999/xlink"><linearGradient id="a"><stop offset="0" stop-color="#fff"/><stop offset="1"/></linearGradient><radialGradient id="b" cx="184.963" cy="150.696" gradientTransform="matrix(1 0 0 -1 0 297.0696)" gradientUnits="userSpaceOnUse" r="78.506" xlink:href="#a"/><radialGradient id="c" cx="242.034" cy="248.253" gradientTransform="matrix(1 0 0 -1 0 297.0696)" gradientUnits="userSpaceOnUse" r="71.878" xlink:href="#a"/><mask id="d" height="97.7" maskUnits="userSpaceOnUse" width="115.6" x="189.7" y=".1"><path d="m181.6-11.7h134v122.5h-134z" fill="url(#e)"/></mask><linearGradient id="e" gradientTransform="matrix(1 0 0 -1 0 297.0696)" gradientUnits="userSpaceOnUse" x1="239.611" x2="260.618" xlink:href="#a" y1="232.271" y2="268.007"/><mask id="f" height="97.7" maskUnits="userSpaceOnUse" width="115.6" x="189.7" y=".1"><path d="m181.6-11.7h134v122.5h-134z" fill="url(#e)"/></mask><radialGradient id="g" cx="221.124" cy="175.969" gradientTransform="matrix(.5 -.866 -.866 -.5 169.7935 326.6713)" gradientUnits="userSpaceOnUse" r="71.913" xlink:href="#a"/><mask id="h" height="97.7" maskUnits="userSpaceOnUse" width="115.5" x="62" y="0"><path d="m218.4 14.5-67 116-106.1-61.2 67-116.1z" fill="url(#i)"/></mask><linearGradient id="i" gradientTransform="matrix(.5 -.866 -.866 -.5 169.7935 326.6713)" gradientUnits="userSpaceOnUse" x1="218.662" x2="239.669" xlink:href="#a" y1="160.074" y2="195.81"/><mask id="j" height="97.7" maskUnits="userSpaceOnUse" width="115.5" x="62" y="0"><path d="m218.4 14.5-67 116-106.1-61.2 67-116.1z" fill="url(#i)"/></mask><radialGradient id="k" cx="148.121" cy="158.031" gradientTransform="matrix(-.5 -.866 -.866 .5 280.327 194.4185)" gradientUnits="userSpaceOnUse" r="71.878" xlink:href="#a"/><mask id="l" height="131.3" maskUnits="userSpaceOnUse" width="68.3" x="36.4" y="81.1"><path d="m86.4 50.5 67 116-106.1 61.3-67-116.1z" fill="url(#m)"/></mask><linearGradient id="m" gradientTransform="matrix(-.5 -.866 -.866 .5 280.327 194.4185)" gradientUnits="userSpaceOnUse" x1="145.652" x2="166.659" xlink:href="#a" y1="142.077" y2="177.813"/><mask id="n" height="131.3" maskUnits="userSpaceOnUse" width="68.3" x="36.4" y="81.1"><path d="m86.4 50.5 67 116-106.1 61.3-67-116.1z" fill="url(#m)"/></mask><radialGradient id="o" cx="96.034" cy="212.253" gradientTransform="matrix(-1 0 0 1 221.0671 32.5641)" gradientUnits="userSpaceOnUse" r="71.878" xlink:href="#a"/><mask id="p" height="97.7" maskUnits="userSpaceOnUse" width="115.5" x="61.9" y="195.7"><path d="m51.6 182.8h134v122.5h-134z" fill="url(#q)"/></mask><linearGradient id="q" gradientTransform="matrix(-1 0 0 1 221.0671 32.5641)" gradientUnits="userSpaceOnUse" x1="93.565" x2="114.572" xlink:href="#a" y1="196.299" y2="232.035"/><mask id="r" height="97.7" maskUnits="userSpaceOnUse" width="115.5" x="61.9" y="195.7"><path d="m51.6 182.8h134v122.5h-134z" fill="url(#q)"/></mask><radialGradient id="s" cx="116.943" cy="284.473" gradientTransform="matrix(-.5 .866 .866 .5 51.2738 2.9625)" gradientUnits="userSpaceOnUse" r="71.878" xlink:href="#a"/><mask id="t" height="97.7" maskUnits="userSpaceOnUse" width="115.5" x="189.6" y="195.9"><path d="m148.8 279.1 67-116 106 61.2-67 116z" fill="url(#u)"/></mask><linearGradient id="u" gradientTransform="matrix(-.5 .866 .866 .5 51.2738 2.9625)" gradientUnits="userSpaceOnUse" x1="114.503" x2="135.51" xlink:href="#a" y1="268.502" y2="304.238"/><mask id="v" height="97.7" maskUnits="userSpaceOnUse" width="115.5" x="189.6" y="195.9"><path d="m148.8 279.1 67-116 106 61.2-67 116z" fill="url(#u)"/></mask><radialGradient id="w" cx="189.946" cy="302.474" gradientTransform="matrix(.5 .866 .866 -.5 -59.2599 135.2152)" gradientUnits="userSpaceOnUse" r="71.878" xlink:href="#a"/><mask id="x" height="131.3" maskUnits="userSpaceOnUse" width="68.3" x="262.4" y="81.3"><path d="m280.8 243.1-67-116 106-61.3 67 116z" fill="url(#y)"/></mask><linearGradient id="y" gradientTransform="matrix(.5 .866 .866 -.5 -59.2599 135.2152)" gradientUnits="userSpaceOnUse" x1="187.509" x2="208.516" xlink:href="#a" y1="286.502" y2="322.238"/><mask id="z" height="131.3" maskUnits="userSpaceOnUse" width="68.3" x="262.4" y="81.3"><path d="m280.8 243.1-67-116 106-61.3 67 116z" fill="url(#y)"/></mask><ellipse cx="183.8" cy="147.7" fill="#1e282c" rx="107.1" ry="195.7" transform="matrix(.4114 -.9114 .9114 .4114 -26.4468 254.4172)"/><path d="m183.5 80.3c2.8 0 5.7.2 8.6.5 36.4 4.7 62.1 38 57.5 74.4-4.3 33.5-32.9 58-65.8 58-2.8 0-5.7-.2-8.6-.5-36.4-4.7-62.1-38-57.5-74.4 4.3-33.5 32.8-58 65.8-58m0-4c-35.3 0-65.3 26.4-69.8 61.5-4.9 38.5 22.4 73.9 60.9 78.9 3 .4 6.1.6 9.1.6 35.3 0 65.3-26.4 69.8-61.5 2.4-18.7-2.6-37.2-14.1-52.1s-28.1-24.4-46.8-26.8c-3.1-.4-6.1-.6-9.1-.6z" fill="#fff"/><path d="m192 80.9c-36.4-4.7-69.7 21.1-74.4 57.5s21.1 69.7 57.5 74.4 69.7-21 74.4-57.5-21.1-69.8-57.5-74.4z" fill="url(#b)" opacity=".26"/><text fill="#fff" font-family="'OpenSans-Bold'" font-size="16" transform="translate(137.9522 142.6721)">Automated</text><text fill="#fff" font-family="'OpenSans-Bold'" font-size="16" transform="translate(154.0522 161.8721)">Testing</text><path d="m183.2 270.3c-67.6 0-122.5-55-122.5-122.5s55-122.5 122.5-122.5c67.6 0 122.5 55 122.5 122.5s-55 122.5-122.5 122.5zm0-228.6c-58.5 0-106 47.6-106 106s47.6 106 106 106 106-47.6 106-106-47.6-106-106-106z" fill="#a14f3d"/><path d="m183.2 41.7c28.3 0 54.9 11 75 31.1 20 20 31.1 46.7 31.1 75s-11 54.9-31.1 75c-20 20-46.7 31.1-75 31.1s-54.9-11-75-31.1c-20-20-31.1-46.7-31.1-75s11-54.9 31.1-75 46.6-31.1 75-31.1m0-8.3c-63.1 0-114.3 51.2-114.3 114.3s51.2 114.3 114.3 114.3 114.3-51.2 114.3-114.3-51.2-114.3-114.3-114.3z" fill="#8e4337"/><path d="m304 61.9c-24.3-34.2-62.9-57.7-107.1-61.8-3.9-.4-7.2 2.7-7.2 6.6v24.8 27.8c27.7 2 51.9 16.8 66.7 38.5l24.1-13.9 21.5-12.4c3.3-1.9 4.3-6.4 2-9.6z" fill="#f16b3a"/><path d="m304 61.9c-24.3-34.2-62.9-57.7-107.1-61.8-3.9-.4-7.2 2.7-7.2 6.6v24.8 27.8c27.7 2 51.9 16.8 66.7 38.5l24.1-13.9 21.5-12.4c3.3-1.9 4.3-6.4 2-9.6z" fill="url(#c)" opacity=".35"/><path d="m196.3 3.4h.3c42 3.9 80.2 25.9 104.7 60.4.5.8.7 1.7.5 2.6s-.8 1.7-1.6 2.2l-21.3 12.4-21.5 12.4c-7.4-10.1-17-18.8-27.8-25.1-11.3-6.6-23.6-10.7-36.6-12.1v-24.7-24.8c.1-1.8 1.5-3.3 3.3-3.3m0-3.3c-3.6 0-6.6 2.9-6.6 6.6v24.8 27.8c27.7 2 51.9 16.8 66.7 38.5l24.1-13.9 21.5-12.4c3.4-1.9 4.3-6.4 2.1-9.6-24.4-34.2-63-57.7-107.2-61.8-.2 0-.4 0-.6 0z" fill="#fabaa7" mask="url(#d)" opacity=".08"/><path d="m194 70.4c20.5 2.9 38.5 13.7 50.7 29.3 1.5 1.9 4.2 2.4 6.3 1.2l5.4-3.1c-14.8-21.7-39-36.5-66.7-38.5v6.2c.1 2.5 1.9 4.6 4.3 4.9z" fill="#db5535"/><path d="m304 61.9c-24.3-34.2-62.9-57.7-107.1-61.8-3.9-.4-7.2 2.7-7.2 6.6v24.8 27.8c27.7 2 51.9 16.8 66.7 38.5l24.1-13.9 21.5-12.4c3.3-1.9 4.3-6.4 2-9.6z" fill="#f16b3a"/><path d="m304 61.9c-24.3-34.2-62.9-57.7-107.1-61.8-3.9-.4-7.2 2.7-7.2 6.6v24.8 27.8c27.7 2 51.9 16.8 66.7 38.5l24.1-13.9 21.5-12.4c3.3-1.9 4.3-6.4 2-9.6z" fill="url(#c)" opacity=".35"/><path d="m196.3 3.4h.3c42 3.9 80.2 25.9 104.7 60.4.5.8.7 1.7.5 2.6s-.8 1.7-1.6 2.2l-21.3 12.4-21.5 12.4c-7.4-10.1-17-18.8-27.8-25.1-11.3-6.6-23.6-10.7-36.6-12.1v-24.7-24.8c.1-1.8 1.5-3.3 3.3-3.3m0-3.3c-3.6 0-6.6 2.9-6.6 6.6v24.8 27.8c27.7 2 51.9 16.8 66.7 38.5l24.1-13.9 21.5-12.4c3.4-1.9 4.3-6.4 2.1-9.6-24.4-34.2-63-57.7-107.2-61.8-.2 0-.4 0-.6 0z" fill="#fabaa7" mask="url(#f)" opacity=".08"/><path d="m194 70.4c20.5 2.9 38.5 13.7 50.7 29.3 1.5 1.9 4.2 2.4 6.3 1.2l5.4-3.1c-14.8-21.7-39-36.5-66.7-38.5v6.2c.1 2.5 1.9 4.6 4.3 4.9z" fill="#db5535"/><path d="m170.3 0c-41.9 4-81.5 25.6-107.1 61.8-2.2 3.2-1.3 7.6 2.1 9.5l21.4 12.4 24.1 13.9c15.6-23 40.5-36.5 66.7-38.5v-27.8-24.8c.1-3.8-3.3-6.8-7.2-6.5z" fill="#f16b3a"/><path d="m170.3 0c-41.9 4-81.5 25.6-107.1 61.8-2.2 3.2-1.3 7.6 2.1 9.5l21.4 12.4 24.1 13.9c15.6-23 40.5-36.5 66.7-38.5v-27.8-24.8c.1-3.8-3.3-6.8-7.2-6.5z" fill="url(#g)" opacity=".35"/><path d="m65.8 64.1c.1-.1.1-.2.2-.3 24.4-34.4 62.5-56.5 104.7-60.5.9-.1 1.8.2 2.5.8s1.1 1.5 1.1 2.4v24.8 24.8c-12.5 1.4-24.7 5.3-35.6 11.5-11.4 6.5-21 15.1-28.7 25.6l-21.5-12.4-21.5-12.3c-1.5-.9-2.1-2.9-1.2-4.4m-2.9-1.7c-1.8 3.1-.7 7.2 2.4 9l21.4 12.4 24.1 13.9c15.6-23 40.5-36.5 66.7-38.5v-27.8-24.8c0-3.9-3.4-7-7.2-6.6-41.9 4-81.5 25.6-107.1 61.8 0 .3-.2.4-.3.6z" fill="#fabaa7" mask="url(#h)" opacity=".08"/><path d="m122.7 99.6c12.7-16.4 31.1-26.5 50.7-29.3 2.4-.3 4.2-2.5 4.2-4.9v-6.2c-26.2 2-51.1 15.5-66.7 38.5l5.4 3.1c2.1 1.2 4.9.7 6.4-1.2z" fill="#db5535"/><path d="m170.3 0c-41.9 4-81.5 25.6-107.1 61.8-2.2 3.2-1.3 7.6 2.1 9.5l21.4 12.4 24.1 13.9c15.6-23 40.5-36.5 66.7-38.5v-27.8-24.8c.1-3.8-3.3-6.8-7.2-6.5z" fill="#f16b3a"/><path d="m170.3 0c-41.9 4-81.5 25.6-107.1 61.8-2.2 3.2-1.3 7.6 2.1 9.5l21.4 12.4 24.1 13.9c15.6-23 40.5-36.5 66.7-38.5v-27.8-24.8c.1-3.8-3.3-6.8-7.2-6.5z" fill="url(#g)" opacity=".35"/><path d="m65.8 64.1c.1-.1.1-.2.2-.3 24.4-34.4 62.5-56.5 104.7-60.5.9-.1 1.8.2 2.5.8s1.1 1.5 1.1 2.4v24.8 24.8c-12.5 1.4-24.7 5.3-35.6 11.5-11.4 6.5-21 15.1-28.7 25.6l-21.5-12.4-21.5-12.3c-1.5-.9-2.1-2.9-1.2-4.4m-2.9-1.7c-1.8 3.1-.7 7.2 2.4 9l21.4 12.4 24.1 13.9c15.6-23 40.5-36.5 66.7-38.5v-27.8-24.8c0-3.9-3.4-7-7.2-6.6-41.9 4-81.5 25.6-107.1 61.8 0 .3-.2.4-.3.6z" fill="#fabaa7" mask="url(#j)" opacity=".08"/><path d="m122.7 99.6c12.7-16.4 31.1-26.5 50.7-29.3 2.4-.3 4.2-2.5 4.2-4.9v-6.2c-26.2 2-51.1 15.5-66.7 38.5l5.4 3.1c2.1 1.2 4.9.7 6.4-1.2z" fill="#db5535"/><path d="m49.9 84.9c-17.5 38.2-18.5 83.4 0 123.7 1.6 3.5 5.9 4.9 9.3 2.9l21.4-12.4 24.1-13.9c-12.1-25-11.4-53.3 0-77l-24.1-13.9-21.4-12.4c-3.4-1.9-7.7-.6-9.3 3z" fill="#f16b3a"/><path d="m49.9 84.9c-17.5 38.2-18.5 83.4 0 123.7 1.6 3.5 5.9 4.9 9.3 2.9l21.4-12.4 24.1-13.9c-12.1-25-11.4-53.3 0-77l-24.1-13.9-21.4-12.4c-3.4-1.9-7.7-.6-9.3 3z" fill="url(#k)" opacity=".35"/><path d="m53 207.4c-.1-.1-.1-.2-.1-.3-17.6-38.3-17.7-82.4 0-120.9.4-.9 1.1-1.5 2-1.8s1.8-.2 2.7.3l21.4 12.4 21.5 12.4c-5.1 11.5-7.8 24.1-7.8 36.6-.1 13.1 2.5 25.8 7.8 37.7l-21.5 12.4-21.4 12.4c-1.6.9-3.6.4-4.6-1.2m-2.8 1.7c1.8 3.1 5.8 4.2 9 2.4l21.4-12.4 24.1-13.9c-12.1-25-11.4-53.3 0-77l-24.1-13.9-21.4-12.4c-3.4-1.9-7.7-.6-9.3 3-17.5 38.2-18.5 83.4 0 123.7.1.1.2.3.3.5z" fill="#fabaa7" mask="url(#l)" opacity=".08"/><path d="m112.3 175.9c-7.8-19.2-7.4-40.2 0-58.5.9-2.3 0-4.9-2.1-6.1l-5.4-3.1c-11.4 23.7-12.1 52 0 77l5.4-3.1c2.1-1.3 3-3.9 2.1-6.2z" fill="#db5535"/><path d="m49.9 84.9c-17.5 38.2-18.5 83.4 0 123.7 1.6 3.5 5.9 4.9 9.3 2.9l21.4-12.4 24.1-13.9c-12.1-25-11.4-53.3 0-77l-24.1-13.9-21.4-12.4c-3.4-1.9-7.7-.6-9.3 3z" fill="#f16b3a"/><path d="m49.9 84.9c-17.5 38.2-18.5 83.4 0 123.7 1.6 3.5 5.9 4.9 9.3 2.9l21.4-12.4 24.1-13.9c-12.1-25-11.4-53.3 0-77l-24.1-13.9-21.4-12.4c-3.4-1.9-7.7-.6-9.3 3z" fill="url(#k)" opacity=".35"/><path d="m53 207.4c-.1-.1-.1-.2-.1-.3-17.6-38.3-17.7-82.4 0-120.9.4-.9 1.1-1.5 2-1.8s1.8-.2 2.7.3l21.4 12.4 21.5 12.4c-5.1 11.5-7.8 24.1-7.8 36.6-.1 13.1 2.5 25.8 7.8 37.7l-21.5 12.4-21.4 12.4c-1.6.9-3.6.4-4.6-1.2m-2.8 1.7c1.8 3.1 5.8 4.2 9 2.4l21.4-12.4 24.1-13.9c-12.1-25-11.4-53.3 0-77l-24.1-13.9-21.4-12.4c-3.4-1.9-7.7-.6-9.3 3-17.5 38.2-18.5 83.4 0 123.7.1.1.2.3.3.5z" fill="#fabaa7" mask="url(#n)" opacity=".08"/><path d="m112.3 175.9c-7.8-19.2-7.4-40.2 0-58.5.9-2.3 0-4.9-2.1-6.1l-5.4-3.1c-11.4 23.7-12.1 52 0 77l5.4-3.1c2.1-1.3 3-3.9 2.1-6.2z" fill="#db5535"/><path d="m63.1 231.6c24.4 34.3 62.9 57.7 107.1 61.8 3.9.4 7.2-2.7 7.2-6.6v-24.8-27.8c-27.7-2-51.9-16.8-66.7-38.5l-24.1 13.9-21.4 12.4c-3.4 2-4.3 6.4-2.1 9.6z" fill="#f16b3a"/><path d="m63.1 231.6c24.4 34.3 62.9 57.7 107.1 61.8 3.9.4 7.2-2.7 7.2-6.6v-24.8-27.8c-27.7-2-51.9-16.8-66.7-38.5l-24.1 13.9-21.4 12.4c-3.4 2-4.3 6.4-2.1 9.6z" fill="url(#o)" opacity=".35"/><path d="m170.8 290.1c-.1 0-.2 0-.3 0-42-3.9-80.2-25.9-104.7-60.4-.5-.8-.7-1.7-.5-2.6s.8-1.7 1.6-2.2l21.4-12.4 21.5-12.4c7.4 10.1 17 18.8 27.8 25.1 11.3 6.6 23.6 10.7 36.6 12.1v24.8 24.8c-.1 1.8-1.6 3.2-3.4 3.2m0 3.3c3.6 0 6.6-2.9 6.6-6.6v-24.8-27.8c-27.7-2-51.9-16.8-66.7-38.5l-24.1 13.9-21.4 12.4c-3.4 1.9-4.3 6.4-2.1 9.6 24.4 34.3 62.9 57.7 107.1 61.8z" fill="#fabaa7" mask="url(#p)" opacity=".08"/><path d="m173.2 223.1c-20.5-2.9-38.5-13.7-50.7-29.3-1.5-1.9-4.2-2.4-6.3-1.2l-5.4 3.1c14.8 21.7 39 36.5 66.7 38.5v-6.2c-.1-2.4-1.9-4.5-4.3-4.9z" fill="#db5535"/><path d="m63.1 231.6c24.4 34.3 62.9 57.7 107.1 61.8 3.9.4 7.2-2.7 7.2-6.6v-24.8-27.8c-27.7-2-51.9-16.8-66.7-38.5l-24.1 13.9-21.4 12.4c-3.4 2-4.3 6.4-2.1 9.6z" fill="#f16b3a"/><path d="m63.1 231.6c24.4 34.3 62.9 57.7 107.1 61.8 3.9.4 7.2-2.7 7.2-6.6v-24.8-27.8c-27.7-2-51.9-16.8-66.7-38.5l-24.1 13.9-21.4 12.4c-3.4 2-4.3 6.4-2.1 9.6z" fill="url(#o)" opacity=".35"/><path d="m170.8 290.1c-.1 0-.2 0-.3 0-42-3.9-80.2-25.9-104.7-60.4-.5-.8-.7-1.7-.5-2.6s.8-1.7 1.6-2.2l21.4-12.4 21.5-12.4c7.4 10.1 17 18.8 27.8 25.1 11.3 6.6 23.6 10.7 36.6 12.1v24.8 24.8c-.1 1.8-1.6 3.2-3.4 3.2m0 3.3c3.6 0 6.6-2.9 6.6-6.6v-24.8-27.8c-27.7-2-51.9-16.8-66.7-38.5l-24.1 13.9-21.4 12.4c-3.4 1.9-4.3 6.4-2.1 9.6 24.4 34.3 62.9 57.7 107.1 61.8z" fill="#fabaa7" mask="url(#r)" opacity=".08"/><path d="m173.2 223.1c-20.5-2.9-38.5-13.7-50.7-29.3-1.5-1.9-4.2-2.4-6.3-1.2l-5.4 3.1c14.8 21.7 39 36.5 66.7 38.5v-6.2c-.1-2.4-1.9-4.5-4.3-4.9z" fill="#db5535"/><path d="m196.8 293.5c41.9-4 81.5-25.6 107.1-61.8 2.2-3.2 1.3-7.6-2.1-9.5l-21.4-12.4-24.1-13.9c-15.6 23-40.5 36.5-66.7 38.5v27.8 24.8c0 3.8 3.3 6.9 7.2 6.5z" fill="#f16b3a"/><path d="m196.8 293.5c41.9-4 81.5-25.6 107.1-61.8 2.2-3.2 1.3-7.6-2.1-9.5l-21.4-12.4-24.1-13.9c-15.6 23-40.5 36.5-66.7 38.5v27.8 24.8c0 3.8 3.3 6.9 7.2 6.5z" fill="url(#s)" opacity=".35"/><path d="m301.4 229.5c-.1.1-.1.2-.2.3-24.4 34.4-62.5 56.5-104.7 60.5-.9.1-1.8-.2-2.5-.8s-1.1-1.5-1.1-2.4v-24.8-24.8c12.5-1.4 24.7-5.3 35.6-11.5 11.4-6.5 21-15.1 28.7-25.6l21.5 12.4 21.4 12.4c1.6.7 2.2 2.7 1.3 4.3m2.8 1.7c1.8-3.1.7-7.2-2.4-9l-21.4-12.4-24.1-13.9c-15.6 23-40.5 36.5-66.7 38.5v27.8 24.8c0 3.9 3.4 7 7.2 6.6 41.9-4 81.5-25.6 107.1-61.8.1-.3.2-.5.3-.6z" fill="#fabaa7" mask="url(#t)" opacity=".08"/><path d="m244.5 194c-12.7 16.4-31.1 26.5-50.7 29.3-2.4.3-4.2 2.5-4.2 4.9v6.2c26.2-2 51.1-15.5 66.7-38.5l-5.4-3.1c-2.2-1.3-4.9-.8-6.4 1.2z" fill="#db5535"/><path d="m196.8 293.5c41.9-4 81.5-25.6 107.1-61.8 2.2-3.2 1.3-7.6-2.1-9.5l-21.4-12.4-24.1-13.9c-15.6 23-40.5 36.5-66.7 38.5v27.8 24.8c0 3.8 3.3 6.9 7.2 6.5z" fill="#f16b3a"/><path d="m196.8 293.5c41.9-4 81.5-25.6 107.1-61.8 2.2-3.2 1.3-7.6-2.1-9.5l-21.4-12.4-24.1-13.9c-15.6 23-40.5 36.5-66.7 38.5v27.8 24.8c0 3.8 3.3 6.9 7.2 6.5z" fill="url(#s)" opacity=".35"/><path d="m301.4 229.5c-.1.1-.1.2-.2.3-24.4 34.4-62.5 56.5-104.7 60.5-.9.1-1.8-.2-2.5-.8s-1.1-1.5-1.1-2.4v-24.8-24.8c12.5-1.4 24.7-5.3 35.6-11.5 11.4-6.5 21-15.1 28.7-25.6l21.5 12.4 21.4 12.4c1.6.7 2.2 2.7 1.3 4.3m2.8 1.7c1.8-3.1.7-7.2-2.4-9l-21.4-12.4-24.1-13.9c-15.6 23-40.5 36.5-66.7 38.5v27.8 24.8c0 3.9 3.4 7 7.2 6.6 41.9-4 81.5-25.6 107.1-61.8.1-.3.2-.5.3-.6z" fill="#fabaa7" mask="url(#v)" opacity=".08"/><path d="m244.5 194c-12.7 16.4-31.1 26.5-50.7 29.3-2.4.3-4.2 2.5-4.2 4.9v6.2c26.2-2 51.1-15.5 66.7-38.5l-5.4-3.1c-2.2-1.3-4.9-.8-6.4 1.2z" fill="#db5535"/><path d="m317.3 208.7c17.5-38.2 18.5-83.4 0-123.7-1.6-3.5-5.9-4.9-9.3-2.9l-21.5 12.4-24.1 13.9c12.1 25 11.4 53.3 0 77l24.1 13.9 21.4 12.4c3.4 1.9 7.8.5 9.4-3z" fill="#f16b3a"/><path d="m317.3 208.7c17.5-38.2 18.5-83.4 0-123.7-1.6-3.5-5.9-4.9-9.3-2.9l-21.5 12.4-24.1 13.9c12.1 25 11.4 53.3 0 77l24.1 13.9 21.4 12.4c3.4 1.9 7.8.5 9.4-3z" fill="url(#w)" opacity=".35"/><path d="m314.1 86.1c.1.1.1.2.1.3 17.6 38.3 17.7 82.4 0 120.9-.4.9-1.1 1.5-2 1.8s-1.8.2-2.7-.3l-21.4-12.4-21.5-12.4c5.1-11.5 7.8-24.1 7.8-36.6.1-13.1-2.5-25.8-7.8-37.7l21.5-12.4 21.4-12.4c1.7-.8 3.7-.3 4.6 1.2m2.9-1.6c-1.8-3.1-5.8-4.2-9-2.4l-21.5 12.4-24.1 13.9c12.1 25 11.4 53.3 0 77l24.1 13.9 21.4 12.4c3.4 1.9 7.7.6 9.3-3 17.5-38.2 18.5-83.4 0-123.7 0-.1-.1-.3-.2-.5z" fill="#fabaa7" mask="url(#x)" opacity=".08"/><path d="m254.9 117.6c7.8 19.2 7.4 40.2 0 58.5-.9 2.3 0 4.9 2.1 6.1l5.4 3.1c11.4-23.7 12.1-52 0-77l-5.4 3.1c-2.1 1.3-3 3.9-2.1 6.2z" fill="#db5535"/><path d="m317.3 208.7c17.5-38.2 18.5-83.4 0-123.7-1.6-3.5-5.9-4.9-9.3-2.9l-21.5 12.4-24.1 13.9c12.1 25 11.4 53.3 0 77l24.1 13.9 21.4 12.4c3.4 1.9 7.8.5 9.4-3z" fill="#f16b3a"/><path d="m317.3 208.7c17.5-38.2 18.5-83.4 0-123.7-1.6-3.5-5.9-4.9-9.3-2.9l-21.5 12.4-24.1 13.9c12.1 25 11.4 53.3 0 77l24.1 13.9 21.4 12.4c3.4 1.9 7.8.5 9.4-3z" fill="url(#w)" opacity=".35"/><path d="m314.1 86.1c.1.1.1.2.1.3 17.6 38.3 17.7 82.4 0 120.9-.4.9-1.1 1.5-2 1.8s-1.8.2-2.7-.3l-21.4-12.4-21.5-12.4c5.1-11.5 7.8-24.1 7.8-36.6.1-13.1-2.5-25.8-7.8-37.7l21.5-12.4 21.4-12.4c1.7-.8 3.7-.3 4.6 1.2m2.9-1.6c-1.8-3.1-5.8-4.2-9-2.4l-21.5 12.4-24.1 13.9c12.1 25 11.4 53.3 0 77l24.1 13.9 21.4 12.4c3.4 1.9 7.7.6 9.3-3 17.5-38.2 18.5-83.4 0-123.7 0-.1-.1-.3-.2-.5z" fill="#fabaa7" mask="url(#z)" opacity=".08"/><path d="m254.9 117.6c7.8 19.2 7.4 40.2 0 58.5-.9 2.3 0 4.9 2.1 6.1l5.4 3.1c11.4-23.7 12.1-52 0-77l-5.4 3.1c-2.1 1.3-3 3.9-2.1 6.2z" fill="#db5535"/><g fill="#fabaa7"><path d="m126.7 62.5c-.3 0-.6 0-.8-.1-1.8-.5-2.8-2.3-2.4-4l2.5-9.7-9.7-2.7c-1.8-.5-2.8-2.3-2.3-4.1s2.3-2.8 4.1-2.3l12.8 3.5c1.7.5 2.8 2.3 2.3 4l-3.4 12.9c-.3 1.5-1.7 2.5-3.1 2.5z" opacity=".2"/><path d="m78.2 155.7c-.8 0-1.7-.3-2.3-1l-7.1-7.1-7.1 7.1c-1.3 1.3-3.4 1.3-4.7 0s-1.3-3.4 0-4.7l9.5-9.3c1.3-1.3 3.4-1.3 4.6 0l9.5 9.3c1.3 1.3 1.3 3.4 0 4.7-.6.7-1.5 1-2.4 1z" opacity=".2"/><path d="m125.3 260.6c-1.5 0-2.8-1-3.2-2.5l-3.4-12.9c-.5-1.7.6-3.5 2.3-4l12.8-3.5c1.8-.5 3.6.5 4.1 2.3s-.6 3.6-2.3 4.1l-9.7 2.7 2.5 9.7c.5 1.8-.6 3.6-2.4 4-.2.1-.4.1-.7.1z" opacity=".2"/><path d="m249.1 255.9c-.3 0-.6 0-.9-.1l-12.8-3.5c-1.7-.5-2.8-2.3-2.3-4l3.4-12.9c.5-1.8 2.3-2.8 4-2.4 1.8.5 2.8 2.3 2.4 4l-2.5 9.7 9.7 2.7c1.8.5 2.8 2.3 2.3 4.1-.5 1.5-1.8 2.4-3.3 2.4z" opacity=".2"/><path d="m297.5 155.7c-.8 0-1.7-.3-2.3-1l-9.5-9.3c-1.3-1.3-1.3-3.4 0-4.7s3.4-1.3 4.7 0l7.1 7.1 7.1-7.1c1.3-1.3 3.4-1.3 4.7 0s1.3 3.4 0 4.7l-9.5 9.3c-.6.7-1.4 1-2.3 1z" opacity=".2"/><path d="m231.6 57.8c-1.5 0-2.8-1-3.2-2.4-.5-1.8.5-3.6 2.3-4.1l9.7-2.7-2.5-9.7c-.5-1.8.6-3.6 2.4-4 1.8-.5 3.6.6 4 2.4l3.4 12.9c.5 1.7-.6 3.5-2.3 4l-12.8 3.5c-.5.1-.8.1-1 .1z" opacity=".4"/></g><path d="m249.5 155.2c4.7-36.4-21.1-69.7-57.5-74.4s-69.7 21.1-74.4 57.5 21 69.7 57.5 74.4c36.4 4.7 69.7-21 74.4-57.5z" fill="#ff6c37"/><path d="m207.6 123-28 28-7.9-7.9c27.5-27.6 30.2-25.1 35.9-20.1z" fill="#fff"/><path d="m179.5 151.7c-.2 0-.3-.1-.5-.2l-7.9-7.9c-.3-.3-.3-.7 0-.9 28-28 31-25.4 36.9-20.1.1.1.2.3.2.5s-.1.4-.2.5l-28 28c-.1 0-.3.1-.5.1zm-7-8.6 7 7 27.1-27.1c-4.9-4.3-8.3-5.6-34.1 20.1z" fill="#ff6c37"/><path d="m187.6 159.1-7.7-7.7 28-28c7.6 7.5-3.6 19.9-20.3 35.7z" fill="#fff"/><path d="m187.6 159.8c-.1 0-.1 0 0 0-.2 0-.4-.1-.5-.2-.2-.2-7.6-7.6-7.6-7.6-.1-.1-.2-.3-.2-.5s.1-.3.2-.5l28-28c.2-.2.7-.2.9 0 1.8 1.8 2.6 3.8 2.6 6.2-.1 7.4-8.5 16.7-23 30.4-.1.1-.3.2-.4.2zm-6.8-8.4 6.7 6.7c11.2-10.6 22-21.5 22.1-29 0-1.8-.5-3.4-1.8-4.8z" fill="#ff6c37"/><path d="m171.8 143.3 5.7 5.7c.2.2.1.4-.1.5l-11.7 2.5c-1.1.2-1.8-1.1-1-1.9l6.8-6.8c0-.1.2-.1.3 0z" fill="#fff"/><path d="m165.4 152.6c-.6 0-1.2-.3-1.5-.9-.4-.7-.3-1.5.3-2.1l6.8-6.8c.4-.4 1-.4 1.3 0l5.7 5.7c.2.2.3.6.2.9s-.4.6-.7.7l-11.7 2.5c-.2 0-.3 0-.4 0zm6.2-8.5-6.5 6.5c-.2.2-.1.4-.1.5s.2.3.5.2l11-2.4z" fill="#ff6c37"/><path d="m222.4 107.5c-4.2-4-10.9-4-15.1.1-4.2 4.2-4.2 11 0 15.2 3.6 3.6 9 4.1 13.2 1.6l-7.5-7.5z" fill="#fff"/><path d="m215 126.6c-2.9 0-5.9-1.1-8.1-3.3s-3.3-5-3.3-8.1 1.2-5.9 3.3-8.1c4.4-4.4 11.5-4.4 16-.2.1.1.2.3.2.5s-.1.4-.2.5l-9 9 7.1 7.1c.1.1.2.3.2.6 0 .2-.1.4-.3.5-1.9 1-3.9 1.5-5.9 1.5zm0-21.5c-2.6 0-5.2 1-7.1 2.9s-3 4.4-3 7.1 1.1 5.2 3 7.1c3.1 3.1 7.7 3.8 11.6 1.9l-6.9-6.9c-.1-.1-.2-.3-.2-.5s.1-.3.2-.5l8.9-8.9c-1.9-1.4-4.2-2.2-6.5-2.2z" fill="#ff6c37"/><path d="m222.6 107.6c-.1-.1-.1-.1-.2-.1l-9.4 9.4 7.5 7.5c.7-.4 1.4-1 2.1-1.6 4.2-4.2 4.2-11 0-15.2z" fill="#fff"/><path d="m220.5 125.1c-.2 0-.3-.1-.5-.2l-7.5-7.5c-.1-.1-.2-.3-.2-.5s.1-.3.2-.5l9.4-9.4c.3-.3.7-.3.9 0l.2.2c2.2 2.2 3.3 5 3.3 8.1s-1.2 5.9-3.3 8.1c-.6.6-1.4 1.2-2.2 1.7 0 0-.2 0-.3 0zm-6.6-8.2 6.7 6.7c.6-.4 1.1-.8 1.5-1.2 1.9-1.9 3-4.4 3-7.1 0-2.5-.9-5-2.6-6.8z" fill="#ff6c37"/><path d="m208.7 124.2c-1.6-1.6-4.2-1.6-5.8 0l-25.1 25.1 4.2 4.2 26.5-23.3c1.8-1.6 1.9-4.3.2-6z" fill="#fff"/><path d="m182 154.1c-.2 0-.3-.1-.5-.2l-4.2-4.2c-.3-.3-.3-.7 0-.9l25.1-25.1c1.9-1.9 4.9-1.9 6.7 0 .9.9 1.4 2.2 1.4 3.5s-.6 2.5-1.6 3.4l-26.5 23.3c-.1.1-.2.2-.4.2zm-3.2-4.9 3.3 3.3 26-22.9c.7-.6 1.1-1.5 1.2-2.5 0-1-.3-1.9-1-2.5-1.3-1.3-3.5-1.3-4.8 0z" fill="#ff6c37"/><path d="m158.6 177.7c-.2.1-.4.4-.3.7l1.1 4.8c.3 1.3-1.3 2.2-2.3 1.3l-7.3-7.3 23.9-23.9 8.2.1 5.6 5.6c-1.3 1.2-9.4 9-28.9 18.7z" fill="#fff"/><path d="m158.1 185.5c-.5 0-1-.2-1.4-.6l-7.3-7.3c-.1-.1-.2-.3-.2-.5s.1-.3.2-.5l23.9-23.9c.1-.1.3-.2.5-.2l8.2.1c.2 0 .3.1.5.2l5.6 5.6c.1.1.2.3.2.5s-.1.4-.2.5-.3.2-.5.4c-7 6.2-16.6 12.3-28.5 18.3l1.1 4.8c.2.9-.2 1.8-1 2.2-.4.4-.8.4-1.1.4zm-7.3-8.3 6.8 6.8c.3.3.7.2.8.1s.4-.3.3-.8l-1.1-4.8c-.1-.6.1-1.1.7-1.4 11.8-5.9 21.3-12 28.3-18.1l-4.9-4.9-7.7-.1z" fill="#ff6c37"/><path d="m144.2 182.9 5.7-5.7 8.5 8.5-13.6-.9c-.9-.1-1.3-1.2-.6-1.9z" fill="#fff"/><path d="m158.4 186.4-13.6-.9c-.7-.1-1.3-.5-1.5-1.2-.2-.6-.1-1.3.4-1.8l5.7-5.7c.3-.3.7-.3.9 0l8.5 8.5c.2.2.2.5.1.7 0 .2-.3.4-.5.4zm-8.5-8.2-5.2 5.2c-.2.2-.1.4-.1.4 0 .1.1.3.4.3l11.8.8z" fill="#ff6c37"/><path d="m171.3 156.4c-.2 0-.5-.1-.6-.3-.1-.3-.1-.6.1-.8l6.5-6.5c.3-.3.7-.3.9 0l4.2 4.2c.2.2.2.4.2.7-.1.2-.3.4-.5.5l-10.6 2.3c-.1-.1-.1-.1-.2-.1zm6.5-6.1-4.4 4.4 7.2-1.6z" fill="#ff6c37"/><path d="m181.9 153.5-7.3 1.6c-1 .2-1.6-1-.9-1.7l4-4z" fill="#fff"/><path d="m174.4 155.7c-.6 0-1.2-.3-1.5-.9-.4-.7-.2-1.5.3-2l4-4c.3-.3.7-.3.9 0l4.2 4.2c.2.2.2.4.2.7-.1.2-.3.4-.5.5l-7.3 1.6c0-.1-.1-.1-.3-.1zm3.4-5.4-3.6 3.6c-.2.2-.1.3-.1.4s.1.2.4.2l6.1-1.3z" fill="#ff6c37"/><path d="m222.6 114c-.2-.4-.7-.5-1-.3-.4.2-.5.7-.3 1 .4.8.3 1.8-.3 2.5-.3.3-.2.8.1 1.1.1.1.3.2.5.2s.4-.1.6-.3c.9-1.2 1.1-2.8.4-4.2z" fill="#ff6c37"/><path d="m17 67.7 2.2 4.1 4.1 2.3-4.1 2.2-2.2 4.1-2.3-4.1-4.1-2.2 4.1-2.3z" fill="#f58757"/><path d="m375.2 190.5 1.6 2.8 2.7 1.5-2.7 1.5-1.6 2.8-1.5-2.8-2.8-1.5 2.8-1.5z" fill="#89769c"/><path d="m52.1 48.4 1.5 2.8 2.8 1.5-2.8 1.5-1.5 2.8-1.5-2.8-2.8-1.5 2.8-1.5z" fill="#89769c"/><path d="m350.9 208.3 1.2 2.2 2.1 1.2-2.1 1.1-1.2 2.2-1.2-2.2-2.2-1.1 2.2-1.2z" fill="#b4cbd5"/></svg>